<svg width="14" height="14" viewBox="0 0 14 14" fill="none" xmlns="http://www.w3.org/2000/svg">
<path d="M7 13.6666C3.318 13.6666 0.333336 10.6819 0.333336 6.99992C0.333336 3.31792 3.318 0.333252 7 0.333252C10.682 0.333252 13.6667 3.31792 13.6667 6.99992C13.6667 10.6819 10.682 13.6666 7 13.6666ZM6.33334 8.99992V10.3333H7.66667V8.99992H6.33334ZM7.66667 7.90325C8.20245 7.74177 8.66241 7.39322 8.96277 6.92108C9.26314 6.44894 9.38394 5.88462 9.30316 5.3309C9.22238 4.77717 8.94541 4.27088 8.52268 3.90422C8.09995 3.53757 7.55959 3.33494 7 3.33325C6.46057 3.33321 5.93778 3.52002 5.52053 3.86191C5.10328 4.20381 4.81734 4.67967 4.71134 5.20859L6.01934 5.47059C6.05646 5.28487 6.14555 5.11352 6.27625 4.97646C6.40695 4.83941 6.57388 4.74228 6.75762 4.69639C6.94136 4.6505 7.13436 4.65773 7.31415 4.71723C7.49394 4.77674 7.65314 4.88608 7.77322 5.03253C7.89331 5.17898 7.96933 5.35651 7.99246 5.54448C8.01558 5.73245 7.98485 5.92312 7.90385 6.09431C7.82285 6.2655 7.6949 6.41016 7.53489 6.51147C7.37488 6.61278 7.18939 6.66657 7 6.66659C6.82319 6.66659 6.65362 6.73682 6.5286 6.86185C6.40357 6.98687 6.33334 7.15644 6.33334 7.33325V8.33325H7.66667V7.90325Z" fill="white"/>
</svg>
