<svg width="12" height="13" viewBox="0 0 12 13" fill="none" xmlns="http://www.w3.org/2000/svg">
<path d="M12 11.8335C12 12.0103 11.9298 12.1798 11.8047 12.3049C11.6797 12.4299 11.5101 12.5001 11.3333 12.5001H0.666667C0.489856 12.5001 0.320287 12.4299 0.195262 12.3049C0.070238 12.1798 1.60474e-07 12.0103 1.60474e-07 11.8335V4.82612C-7.03224e-05 4.72452 0.0230781 4.62426 0.0676773 4.53298C0.112277 4.4417 0.177147 4.36183 0.257333 4.29945L5.59067 0.151449C5.7077 0.0604126 5.85173 0.0109863 6 0.0109863C6.14827 0.0109863 6.2923 0.0604126 6.40933 0.151449L11.7427 4.29945C11.8229 4.36183 11.8877 4.4417 11.9323 4.53298C11.9769 4.62426 12.0001 4.72452 12 4.82612V11.8335Z" fill="white"/>
</svg>
