<svg width="32" height="32" viewBox="0 0 32 32" fill="none" xmlns="http://www.w3.org/2000/svg">
<g filter="url(#filter0_b_254_2000)">
<rect width="32" height="32" rx="16" fill="white" fill-opacity="0.06"/>
<path d="M9.36663 16.6667H13.018C13.1319 18.7781 13.8049 20.8214 14.968 22.5873C13.5111 22.3587 12.1712 21.6536 11.1576 20.5825C10.144 19.5114 9.51395 18.1346 9.36597 16.6673L9.36663 16.6667ZM9.36663 15.3333C9.51458 13.8662 10.1445 12.4894 11.158 11.4183C12.1714 10.3472 13.5113 9.64215 14.968 9.41333C13.805 11.1791 13.132 13.2221 13.018 15.3333H9.36663ZM22.6333 15.3333H18.982C18.8679 13.2221 18.1949 11.1791 17.032 9.41333C18.4887 9.64215 19.8285 10.3472 20.842 11.4183C21.8554 12.4894 22.4854 13.8662 22.6333 15.3333ZM22.6333 16.6667C22.4855 18.1339 21.8556 19.5108 20.8421 20.5821C19.8287 21.6533 18.4888 22.3585 17.032 22.5873C18.1949 20.8216 18.8679 18.7786 18.982 16.6673H22.634L22.6333 16.6667ZM14.3533 16.6667H17.6466C17.5369 18.4663 16.9702 20.2083 16 21.728C15.0298 20.2083 14.463 18.4663 14.3533 16.6667ZM14.3533 15.3333C14.4633 13.5341 15.03 11.7926 16 10.2733C16.97 11.7926 17.5367 13.5341 17.6466 15.3333H14.3533Z" fill="white"/>
</g>
<defs>
<filter id="filter0_b_254_2000" x="-100" y="-100" width="232" height="232" filterUnits="userSpaceOnUse" color-interpolation-filters="sRGB">
<feFlood flood-opacity="0" result="BackgroundImageFix"/>
<feGaussianBlur in="BackgroundImageFix" stdDeviation="50"/>
<feComposite in2="SourceAlpha" operator="in" result="effect1_backgroundBlur_254_2000"/>
<feBlend mode="normal" in="SourceGraphic" in2="effect1_backgroundBlur_254_2000" result="shape"/>
</filter>
</defs>
</svg>
